<?xml version="1.0" encoding="utf-8"?>
<!-- Generator: Adobe Illustrator 20.1.0, SVG Export Plug-In . SVG Version: 6.00 Build 0)  -->
<svg version="1.1" id="Layer_1" xmlns="http://www.w3.org/2000/svg" xmlns:xlink="http://www.w3.org/1999/xlink" x="0px" y="0px"
	 viewBox="0 0 171.8 171.8" style="enable-background:new 0 0 171.8 171.8;" xml:space="preserve">
<path d="M160.7,117c-12,29.5-42.6,48.5-73.9,49.3c-2.2-5.6-1.7-12.4-2.5-18.6c-1.7-23.6,19.8-38.8,28.5-58.7
	c6.1-13.3,18.3-25.3,29.5-35.4c3.3-5.2,6.5-10.5,8.7-16.1C168,58.7,171.8,91.7,160.7,117 M144.1,29c-6.1,11.3-14.7,21.4-21.3,32.5
	c-7.1,13-18.6,24.2-24.5,37.7c-2.2,2.6-4.8,6.4-8.2,7.2c-1-7.2,3-13.8,3-20.8c2.4-15.7,3.4-32,10.2-45.9l6.9-31
	C122.4,13.1,134.4,18.8,144.1,29 M75.4,25.3c4,13.5,2,29.4,6.4,42.6c10.2,18.8-0.1,41.1-0.7,61l-6.7,36.4
	c-27.2-2.9-55.3-23.8-64.5-50.6C-1.9,82,7.1,44.6,34.7,22.2C45.2,13.9,57,9.1,69.7,6.1C72.1,12.2,74,18.8,75.4,25.3 M100.7,6.2
	c0.9,21.7-10.2,38.4-9.7,60l-1.5-0.7C88.7,44.4,79.3,26,80.3,5C87.5,4.7,94.1,5.4,100.7,6.2"/>
</svg>
